<?xml version="1.0" encoding="utf-8"?>
<!DOCTYPE svg PUBLIC "-//W3C//DTD SVG 1.1//EN" "http://www.w3.org/Graphics/SVG/1.1/DTD/svg11.dtd">
<svg version="1.1" xmlns="http://www.w3.org/2000/svg" width="1052" height="1052">
<rect fill="#F0DB4F" width="1052" height="1052"/>
<path fill="#323330" d="M965.9,801.1c-7.7-48-39-88.3-131.7-125.9,c-32.2-14.8-68.1-25.4-78.8-49.8c-3.8-14.2-4.3-22.2-1.9-30.8c6.9-27.9,40.2-36.6,66.6-28.6c17,5.7,33.1,18.8,42.8,39.7,c45.4-29.4,45.3-29.2,77-49.4c-11.6-18-17.8-26.3-25.4-34c-27.3-30.5-64.5-46.2-124-45c-10.3,1.3-20.7,2.7-31,4,c-29.7,7.5-58,23.1-74.6,44c-49.8,56.5-35.6,155.4,25,196.1c59.7,44.8,147.4,55,158.6,96.9c10.9,51.3-37.7,67.9-86,62,c-35.6-7.4-55.4-25.5-76.8-58.4c-39.4,22.8-39.4,22.8-79.9,46.1c9.6,21,19.7,30.5,35.8,48.7c76.2,77.3,266.9,73.5,301.1-43.5,C964.1,869.2,973.3,842.4,965.9,801.1z M571.9,483.5h-98.4c0,85-0.4,169.4-0.4,254.4c0,54.1,2.8,103.7-6,118.9,c-14.4,29.9-51.7,26.2-68.7,20.4c-17.3-8.5-26.1-20.6-36.3-37.7c-2.8-4.9-4.9-8.7-5.6-9c-26.7,16.3-53.3,32.7-80,49,c13.3,27.3,32.9,51,58,66.4c37.5,22.5,87.9,29.4,140.6,17.3c34.3-10,63.9-30.7,79.4-62.2c22.4-41.3,17.6-91.3,17.4-146.6,C572.4,664.2,571.9,574,571.9,483.5z"/>
</svg>