<?xml version="1.0" encoding="UTF-8" standalone="no"?>
<svg
   class="icon icon-tabler icon-tabler-fall"
   width="44"
   height="44"
   viewBox="0 0 24 24"
   stroke-width="2"
   stroke="#fff"
   fill="none"
   stroke-linecap="round"
   stroke-linejoin="round"
   version="1.1"
   id="svg11049"
   sodipodi:docname="07.svg"
   inkscape:version="1.2.2 (732a01da63, 2022-12-09)"
   xmlns:inkscape="http://www.inkscape.org/namespaces/inkscape"
   xmlns:sodipodi="http://sodipodi.sourceforge.net/DTD/sodipodi-0.dtd"
   xmlns="http://www.w3.org/2000/svg"
   xmlns:svg="http://www.w3.org/2000/svg">
  <defs
     id="defs11053" />
  <sodipodi:namedview
     id="namedview11051"
     pagecolor="#ffffff"
     bordercolor="#000000"
     borderopacity="0.25"
     inkscape:showpageshadow="2"
     inkscape:pageopacity="0.0"
     inkscape:pagecheckerboard="0"
     inkscape:deskcolor="#d1d1d1"
     showgrid="false"
     inkscape:zoom="9.4204546"
     inkscape:cx="-2.2822678"
     inkscape:cy="14.648975"
     inkscape:window-width="1920"
     inkscape:window-height="1009"
     inkscape:window-x="-8"
     inkscape:window-y="-8"
     inkscape:window-maximized="1"
     inkscape:current-layer="svg11049" />
  <g
     id="g11177"
     transform="matrix(0.56818182,0,0,0.56818182,5.1818182,5.1818182)">
    <path
       stroke="none"
       d="M 0,0 H 24 V 24 H 0 Z"
       fill="none"
       id="path11039" />
    <path
       d="M 11,21 12,16 11,12 8,8 h 4 l 3,-3"
       id="path11041" />
    <path
       d="M 6,16 5,12 8,8"
       id="path11043" />
    <path
       d="M 6,5 M 5,5 A 1,1 0 1 0 7,5 1,1 0 1 0 5,5"
       id="path11045" />
    <path
       d="M 13.5,12 H 16 l 4,2"
       id="path11047" />
  </g>
  <g
     aria-label="VII"
     id="text301"
     style="font-size:4.50242px;font-family:'Bauhaus 93';-inkscape-font-specification:'Bauhaus 93, ';fill:#ffffff;stroke:none;stroke-width:13.2446;stroke-miterlimit:16.7;paint-order:markers fill stroke">
    <path
       d="M 2.8425923,0 1.9104507,3.0008805 H 0.97171368 L 0,0 H 0.97171368 L 1.4443798,1.6356447 q 0.048366,0.1450976 0.085739,0.2857982 L 2.084128,0 Z"
       style="font-family:'Franklin Gothic Heavy';-inkscape-font-specification:'Franklin Gothic Heavy, '"
       id="path2282" />
    <path
       d="M 4.0407461,0 V 3.0008805 H 3.1195967 V 0 Z"
       style="font-family:'Franklin Gothic Heavy';-inkscape-font-specification:'Franklin Gothic Heavy, '"
       id="path2284" />
    <path
       d="M 5.4851259,0 V 3.0008805 H 4.5639765 V 0 Z"
       style="font-family:'Franklin Gothic Heavy';-inkscape-font-specification:'Franklin Gothic Heavy, '"
       id="path2286" />
  </g>
</svg>
