<?xml version="1.0" encoding="UTF-8" standalone="no"?>
<svg
   class="icon icon-tabler icon-tabler-fall"
   width="44"
   height="44"
   viewBox="0 0 24 24"
   stroke-width="2"
   stroke="#fff"
   fill="none"
   stroke-linecap="round"
   stroke-linejoin="round"
   version="1.1"
   id="svg13263"
   sodipodi:docname="09.svg"
   inkscape:version="1.2.2 (732a01da63, 2022-12-09)"
   xmlns:inkscape="http://www.inkscape.org/namespaces/inkscape"
   xmlns:sodipodi="http://sodipodi.sourceforge.net/DTD/sodipodi-0.dtd"
   xmlns="http://www.w3.org/2000/svg"
   xmlns:svg="http://www.w3.org/2000/svg">
  <defs
     id="defs13267" />
  <sodipodi:namedview
     id="namedview13265"
     pagecolor="#ffffff"
     bordercolor="#000000"
     borderopacity="0.25"
     inkscape:showpageshadow="2"
     inkscape:pageopacity="0.0"
     inkscape:pagecheckerboard="0"
     inkscape:deskcolor="#d1d1d1"
     showgrid="false"
     inkscape:zoom="6.6612673"
     inkscape:cx="12.835395"
     inkscape:cy="19.816049"
     inkscape:window-width="1920"
     inkscape:window-height="1009"
     inkscape:window-x="-8"
     inkscape:window-y="-8"
     inkscape:window-maximized="1"
     inkscape:current-layer="svg13263" />
  <g
     id="g13415"
     transform="matrix(0.56818182,0,0,0.56818182,5.1818182,5.1818182)">
    <path
       stroke="none"
       d="M 0,0 H 24 V 24 H 0 Z"
       fill="none"
       id="path13253" />
    <path
       d="M 11,21 12,16 11,12 8,8 h 4 l 3,-3"
       id="path13255" />
    <path
       d="M 6,16 5,12 8,8"
       id="path13257" />
    <path
       d="M 6,5 M 5,5 A 1,1 0 1 0 7,5 1,1 0 1 0 5,5"
       id="path13259" />
    <path
       d="M 13.5,12 H 16 l 4,2"
       id="path13261" />
  </g>
  <g
     aria-label="IX"
     id="text301"
     style="font-size:4.50242px;font-family:'Bauhaus 93';-inkscape-font-specification:'Bauhaus 93, ';fill:#ffffff;stroke:none;stroke-width:13.2446;stroke-miterlimit:16.7;paint-order:markers fill stroke">
    <path
       d="M 0.9211494,0 V 3.0008805 H 0 V 0 Z"
       style="font-family:'Franklin Gothic Heavy';-inkscape-font-specification:'Franklin Gothic Heavy, '"
       id="path2244" />
    <path
       d="M 4.0121662,0 3.1415811,1.3938155 4.1506684,3.0008805 H 3.0800246 L 2.5260159,2.0577466 1.9676103,3.0008805 H 1.1234065 L 2.0907233,1.4465783 1.1629786,0 H 2.2358208 L 2.7018916,0.80683013 3.18555,0 Z"
       style="font-family:'Franklin Gothic Heavy';-inkscape-font-specification:'Franklin Gothic Heavy, '"
       id="path2246" />
  </g>
</svg>
