<?xml version="1.0" encoding="UTF-8" standalone="no"?>
<svg
   class="ionicon"
   viewBox="0 0 512 512"
   version="1.1"
   id="svg16883"
   sodipodi:docname="13.svg"
   inkscape:version="1.2.2 (732a01da63, 2022-12-09)"
   xmlns:inkscape="http://www.inkscape.org/namespaces/inkscape"
   xmlns:sodipodi="http://sodipodi.sourceforge.net/DTD/sodipodi-0.dtd"
   xmlns="http://www.w3.org/2000/svg"
   xmlns:svg="http://www.w3.org/2000/svg">
  <defs
     id="defs16887" />
  <sodipodi:namedview
     id="namedview16885"
     pagecolor="#ffffff"
     bordercolor="#000000"
     borderopacity="0.25"
     inkscape:showpageshadow="2"
     inkscape:pageopacity="0.0"
     inkscape:pagecheckerboard="0"
     inkscape:deskcolor="#d1d1d1"
     showgrid="false"
     inkscape:zoom="0.57245266"
     inkscape:cx="-552.88415"
     inkscape:cy="34.937387"
     inkscape:window-width="1920"
     inkscape:window-height="1009"
     inkscape:window-x="-8"
     inkscape:window-y="-8"
     inkscape:window-maximized="1"
     inkscape:current-layer="svg16883" />
  <g
     id="g17008"
     transform="matrix(0.55410242,0,0,0.55410242,114.14978,111.88759)">
    <path
       d="M 400,320 C 400,408.37 344.37,464 256,464 167.63,464 112,408.37 112,320 112,225.17 215.23,97.15 246.89,60.12 a 12,12 0 0 1 18.23,0 C 296.77,97.15 400,225.17 400,320 Z"
       fill="none"
       stroke="#ffffff"
       stroke-miterlimit="10"
       stroke-width="45"
       id="path16879" />
    <path
       d="m 344,328 a 72,72 0 0 1 -72,72"
       fill="none"
       stroke="#ffffff"
       stroke-linecap="round"
       stroke-linejoin="round"
       stroke-width="45"
       id="path16881" />
  </g>
  <g
     aria-label="XIII"
     id="text301"
     style="font-size:99.9875px;font-family:'Bauhaus 93';-inkscape-font-specification:'Bauhaus 93, ';fill:#ffffff;stroke-width:294.13;stroke-linecap:round;stroke-miterlimit:16.7;paint-order:markers fill stroke">
    <path
       d="M 64.152138,-2.0340085e-6 44.818617,30.953161 67.227926,66.642059 H 43.4516 L 31.148451,45.697411 18.747657,66.642059 H 0 L 21.48169,32.124889 0.87879642,-2.0340085e-6 H 24.703944 L 35.054213,17.91768 45.795058,-2.0340085e-6 Z"
       style="font-family:'Franklin Gothic Heavy';-inkscape-font-specification:'Franklin Gothic Heavy, '"
       id="path2183" />
    <path
       d="M 92.12716,-2.0340085e-6 V 66.642059 H 71.670732 V -2.0340085e-6 Z"
       style="font-family:'Franklin Gothic Heavy';-inkscape-font-specification:'Franklin Gothic Heavy, '"
       id="path2185" />
    <path
       d="M 124.20323,-2.0340085e-6 V 66.642059 H 103.74681 V -2.0340085e-6 Z"
       style="font-family:'Franklin Gothic Heavy';-inkscape-font-specification:'Franklin Gothic Heavy, '"
       id="path2187" />
    <path
       d="M 156.2793,-2.0340085e-6 V 66.642059 H 135.82287 V -2.0340085e-6 Z"
       style="font-family:'Franklin Gothic Heavy';-inkscape-font-specification:'Franklin Gothic Heavy, '"
       id="path2189" />
  </g>
</svg>
