<?xml version="1.0" encoding="UTF-8" standalone="no"?>
<svg
   class="icon icon-tabler icon-tabler-candle"
   width="44"
   height="44"
   viewBox="0 0 24 24"
   stroke-width="2"
   stroke="#fff"
   fill="none"
   stroke-linecap="round"
   stroke-linejoin="round"
   version="1.1"
   id="svg18517"
   sodipodi:docname="14.svg"
   inkscape:version="1.2.2 (732a01da63, 2022-12-09)"
   xmlns:inkscape="http://www.inkscape.org/namespaces/inkscape"
   xmlns:sodipodi="http://sodipodi.sourceforge.net/DTD/sodipodi-0.dtd"
   xmlns="http://www.w3.org/2000/svg"
   xmlns:svg="http://www.w3.org/2000/svg">
  <defs
     id="defs18521" />
  <sodipodi:namedview
     id="namedview18519"
     pagecolor="#ffffff"
     bordercolor="#000000"
     borderopacity="0.25"
     inkscape:showpageshadow="2"
     inkscape:pageopacity="0.0"
     inkscape:pagecheckerboard="0"
     inkscape:deskcolor="#d1d1d1"
     showgrid="false"
     inkscape:zoom="6.6612673"
     inkscape:cx="-44.210807"
     inkscape:cy="7.205836"
     inkscape:window-width="1920"
     inkscape:window-height="1009"
     inkscape:window-x="-8"
     inkscape:window-y="-8"
     inkscape:window-maximized="1"
     inkscape:current-layer="svg18517" />
  <g
     id="g18643"
     transform="matrix(0.56818182,0,0,0.56818182,5.1818182,5.1818182)">
    <path
       stroke="none"
       d="M 0,0 H 24 V 24 H 0 Z"
       fill="none"
       id="path18511" />
    <path
       d="m 9,21 h 6 v -9 a 1,1 0 0 0 -1,-1 h -4 a 1,1 0 0 0 -1,1 z"
       id="path18513" />
    <path
       d="m 12,3 1.465,1.638 A 2,2 0 1 1 10.45,4.737 Z"
       id="path18515" />
  </g>
  <g
     aria-label="XIV"
     id="text301"
     style="font-size:4.50242px;font-family:'Bauhaus 93';-inkscape-font-specification:'Bauhaus 93, ';fill:#ffffff;stroke:none;stroke-width:13.2446;stroke-miterlimit:16.7;paint-order:markers fill stroke">
    <path
       d="M 2.8887597,0 2.0181746,1.3938155 3.0272618,3.0008805 H 1.956618 L 1.4026093,2.0577466 0.84420374,3.0008805 H 0 L 0.96731679,1.4465783 0.03957205,0 H 1.1124143 L 1.5784851,0.80683013 2.0621435,0 Z"
       style="font-family:'Franklin Gothic Heavy';-inkscape-font-specification:'Franklin Gothic Heavy, '"
       id="path2165" />
    <path
       d="M 4.14847,0 V 3.0008805 H 3.2273206 V 0 Z"
       style="font-family:'Franklin Gothic Heavy';-inkscape-font-specification:'Franklin Gothic Heavy, '"
       id="path2167" />
    <path
       d="M 7.2680666,0 6.3359249,3.0008805 H 5.397188 L 4.4254743,0 H 5.397188 L 5.8698541,1.6356447 Q 5.91822,1.7807423 5.9555936,1.9214429 L 6.5096023,0 Z"
       style="font-family:'Franklin Gothic Heavy';-inkscape-font-specification:'Franklin Gothic Heavy, '"
       id="path2169" />
  </g>
</svg>
