<?xml version="1.0" encoding="UTF-8" standalone="no"?>
<svg
   class="icon icon-tabler icon-tabler-sparkles"
   width="44"
   height="44"
   viewBox="0 0 24 24"
   stroke-width="2"
   stroke="#fff"
   fill="none"
   stroke-linecap="round"
   stroke-linejoin="round"
   version="1.1"
   id="svg19425"
   sodipodi:docname="15.svg"
   inkscape:version="1.2.2 (732a01da63, 2022-12-09)"
   xmlns:inkscape="http://www.inkscape.org/namespaces/inkscape"
   xmlns:sodipodi="http://sodipodi.sourceforge.net/DTD/sodipodi-0.dtd"
   xmlns="http://www.w3.org/2000/svg"
   xmlns:svg="http://www.w3.org/2000/svg">
  <defs
     id="defs19429" />
  <sodipodi:namedview
     id="namedview19427"
     pagecolor="#ffffff"
     bordercolor="#000000"
     borderopacity="0.25"
     inkscape:showpageshadow="2"
     inkscape:pageopacity="0.0"
     inkscape:pagecheckerboard="0"
     inkscape:deskcolor="#d1d1d1"
     showgrid="false"
     inkscape:zoom="13.322535"
     inkscape:cx="6.3426367"
     inkscape:cy="23.118723"
     inkscape:window-width="1920"
     inkscape:window-height="1009"
     inkscape:window-x="-8"
     inkscape:window-y="-8"
     inkscape:window-maximized="1"
     inkscape:current-layer="svg19425" />
  <g
     id="g19550"
     transform="matrix(0.56818182,0,0,0.56818182,5.1818182,5.1818182)">
    <path
       stroke="none"
       d="M 0,0 H 24 V 24 H 0 Z"
       fill="none"
       id="path19421" />
    <path
       d="m 16,18 a 2,2 0 0 1 2,2 2,2 0 0 1 2,-2 2,2 0 0 1 -2,-2 2,2 0 0 1 -2,2 z M 16,6 A 2,2 0 0 1 18,8 2,2 0 0 1 20,6 2,2 0 0 1 18,4 2,2 0 0 1 16,6 Z M 9,18 a 6,6 0 0 1 6,-6 6,6 0 0 1 -6,-6 6,6 0 0 1 -6,6 6,6 0 0 1 6,6 z"
       id="path19423" />
  </g>
  <g
     aria-label="I"
     id="text301"
     style="font-size:4.50242px;font-family:'Bauhaus 93';-inkscape-font-specification:'Bauhaus 93, ';fill:#ffffff;stroke:none;stroke-width:13.2446;stroke-miterlimit:16.7;paint-order:markers fill stroke">
    <path
       d="M 0.9211494,0 V 3.0008805 H 0 V 0 Z"
       style="font-family:'Franklin Gothic Heavy';-inkscape-font-specification:'Franklin Gothic Heavy, ';fill:#f9e71f"
       id="path2154" />
  </g>
</svg>
