<?xml version="1.0" encoding="UTF-8" standalone="no"?>
<svg
   class="icon icon-tabler icon-tabler-trekking"
   width="44"
   height="44"
   viewBox="0 0 24 24"
   stroke-width="2"
   stroke="#fff"
   fill="none"
   stroke-linecap="round"
   stroke-linejoin="round"
   version="1.1"
   id="svg21893"
   sodipodi:docname="18.svg"
   inkscape:version="1.2.2 (732a01da63, 2022-12-09)"
   xmlns:inkscape="http://www.inkscape.org/namespaces/inkscape"
   xmlns:sodipodi="http://sodipodi.sourceforge.net/DTD/sodipodi-0.dtd"
   xmlns="http://www.w3.org/2000/svg"
   xmlns:svg="http://www.w3.org/2000/svg">
  <defs
     id="defs21897" />
  <sodipodi:namedview
     id="namedview21895"
     pagecolor="#ffffff"
     bordercolor="#000000"
     borderopacity="0.25"
     inkscape:showpageshadow="2"
     inkscape:pageopacity="0.0"
     inkscape:pagecheckerboard="0"
     inkscape:deskcolor="#d1d1d1"
     showgrid="false"
     inkscape:zoom="6.6612673"
     inkscape:cx="22.593298"
     inkscape:cy="21.167143"
     inkscape:window-width="1920"
     inkscape:window-height="1009"
     inkscape:window-x="-8"
     inkscape:window-y="-8"
     inkscape:window-maximized="1"
     inkscape:current-layer="svg21893" />
  <g
     id="g22023"
     transform="matrix(0.56818182,0,0,0.56818182,5.1818182,5.1818182)">
    <path
       stroke="none"
       d="M 0,0 H 24 V 24 H 0 Z"
       fill="none"
       id="path21879" />
    <path
       d="m 12,4 m -1,0 a 1,1 0 1 0 2,0 1,1 0 1 0 -2,0"
       id="path21881" />
    <path
       d="M 7,21 9,17"
       id="path21883" />
    <path
       d="m 13,21 v -4 l -3,-3 1,-6 3,4 3,2"
       id="path21885" />
    <path
       d="M 10,14 8.173,12.782 A 2,2 0 0 1 7.342,10.632 L 7.622,9.515 A 2,2 0 0 1 9.561,8 H 11 l 4,1 3,-2"
       id="path21887" />
    <path
       d="m 17,12 v 9"
       id="path21889" />
    <path
       d="m 16,20 h 2"
       id="path21891" />
  </g>
  <g
     aria-label="IV"
     id="text301"
     style="font-size:4.50242px;font-family:'Bauhaus 93';-inkscape-font-specification:'Bauhaus 93, ';fill:#ffffff;stroke:none;stroke-width:13.2446;stroke-miterlimit:16.7;paint-order:markers fill stroke">
    <path
       d="M 0.9211494,0 V 3.0008805 H 0 V 0 Z"
       style="font-family:'Franklin Gothic Heavy';-inkscape-font-specification:'Franklin Gothic Heavy, ';fill:#f9e71f"
       id="path440" />
    <path
       d="M 4.040746,0 3.1086044,3.0008805 H 2.1698674 L 1.1981537,0 h 0.9717137 l 0.4726662,1.6356447 q 0.048366,0.1450976 0.085739,0.2857982 L 3.2822817,0 Z"
       style="font-family:'Franklin Gothic Heavy';-inkscape-font-specification:'Franklin Gothic Heavy, ';fill:#f9e71f"
       id="path442" />
  </g>
</svg>
