<?xml version="1.0" encoding="UTF-8" standalone="no"?>
<svg
   class="ionicon"
   viewBox="0 0 512 512"
   version="1.1"
   id="svg8"
   sodipodi:docname="08.svg"
   inkscape:version="1.2.2 (732a01da63, 2022-12-09)"
   xmlns:inkscape="http://www.inkscape.org/namespaces/inkscape"
   xmlns:sodipodi="http://sodipodi.sourceforge.net/DTD/sodipodi-0.dtd"
   xmlns="http://www.w3.org/2000/svg"
   xmlns:svg="http://www.w3.org/2000/svg">
  <defs
     id="defs12" />
  <sodipodi:namedview
     id="namedview10"
     pagecolor="#ffffff"
     bordercolor="#000000"
     borderopacity="0.25"
     inkscape:showpageshadow="2"
     inkscape:pageopacity="0.0"
     inkscape:pagecheckerboard="0"
     inkscape:deskcolor="#d1d1d1"
     showgrid="false"
     inkscape:zoom="0.57245266"
     inkscape:cx="220.10554"
     inkscape:cy="269.01788"
     inkscape:window-width="1920"
     inkscape:window-height="1009"
     inkscape:window-x="-8"
     inkscape:window-y="-8"
     inkscape:window-maximized="1"
     inkscape:current-layer="svg8" />
  <path
     d="M416 128c-18.9 4.25-36.8 8.94-53.7 13.95-40.5 12-75.5 27.15-105.4 41.65-19.3 9.37-26.2 13.51-51.5 28.23-58.4 33.69-93.4 77.4-93.4 142.81C112 428.55 167.6 480 256 480s144-55.81 144-129.72S339 225.24 416 128z"
     fill="none"
     stroke="currentColor"
     stroke-linecap="round"
     stroke-linejoin="round"
     stroke-width="32"
     id="path2"
     style="stroke:#776e65;stroke-opacity:1;stroke-width:42;stroke-dasharray:none" />
  <path
     d="M264 180.19c-19.69-27-38.2-38.69-52.7-46.59C162.6 107.1 96 96 96 96c41.5 43.7 37.2 90.1 32 128 0 0-3.87 32.88 1.91 58.41"
     fill="none"
     stroke="currentColor"
     stroke-linecap="round"
     stroke-linejoin="round"
     stroke-width="32"
     id="path4"
     style="stroke:#776e65;stroke-opacity:1;stroke-width:42;stroke-dasharray:none" />
  <path
     d="M372 139.15C356.55 102.6 336 64 336 64s-63.32 0-135.69 64M253.48 87.57C221.25 45.81 176 32 176 32c-15.3 20.8-28.79 51.58-34.87 74.17"
     fill="none"
     stroke="currentColor"
     stroke-linecap="round"
     stroke-linejoin="round"
     stroke-width="32"
     id="path6"
     style="stroke:#776e65;stroke-opacity:1;stroke-width:42;stroke-dasharray:none" />
</svg>
